<?xml version="1.0" encoding="utf-8"?>
<!-- Generator: Adobe Illustrator 25.2.1, SVG Export Plug-In . SVG Version: 6.00 Build 0)  -->
<svg version="1.1" id="Layer_1" xmlns="http://www.w3.org/2000/svg" xmlns:xlink="http://www.w3.org/1999/xlink" x="0px" y="0px"
	 viewBox="0 0 1366 768" style="enable-background:new 0 0 1366 768;" xml:space="preserve">
<style type="text/css">
	.st0{font-family:'MyriadPro-Regular';}
	.st1{font-size:19.6761px;}
	.st2{fill:none;}
	.st3{font-size:21px;}
	.st4{font-size:12px;}
	.st5{letter-spacing:1;}
	.st6{font-size:48px;}
	.st7{letter-spacing:35;}
	.st8{letter-spacing:4;}
	.st9{letter-spacing:10;}
</style>
<g>
	<path d="M1357,37v118H16V37H1357 M1358,36H15v120h1343V36L1358,36z"/>
</g>
<g>
	<path d="M131.5,56c37.22,0,67.5,18.84,67.5,42s-30.28,42-67.5,42S64,121.16,64,98S94.28,56,131.5,56 M131.5,55
		C93.67,55,63,74.25,63,98s30.67,43,68.5,43S200,121.75,200,98S169.33,55,131.5,55L131.5,55z"/>
</g>
<g>
	<path d="M1357,192v67H23v-67H1357 M1358,191H22v69h1336V191L1358,191z"/>
</g>
<g>
	<path d="M1028.5,105c16.27,0,29.5,8.97,29.5,20s-13.23,20-29.5,20s-29.5-8.97-29.5-20S1012.23,105,1028.5,105 M1028.5,104
		c-16.84,0-30.5,9.4-30.5,21s13.66,21,30.5,21c16.84,0,30.5-9.4,30.5-21S1045.34,104,1028.5,104L1028.5,104z"/>
</g>
<text transform="matrix(2.4271 0 0 1 83.9995 90.4697)"><tspan x="0" y="0" class="st0 st1">Company</tspan><tspan x="0" y="23.61" class="st0 st1">Logo</tspan></text>
<rect x="519" y="63" class="st2" width="327" height="26"/>
<text transform="matrix(1 0 0 1 519 77.9097)" class="st0 st3">Products</text>
<ellipse class="st2" cx="1121.5" cy="125" rx="30.5" ry="21"/>
<text transform="matrix(1 0 0 1 1112.8965 112.52)"><tspan x="0" y="0" class="st0 st4 st5">In</tspan><tspan x="13.52" y="0" class="st0 st4">-</tspan><tspan x="-20.74" y="14.4" class="st0 st4">sights</tspan></text>
<g>
	<path d="M1224.5,105c16.27,0,29.5,8.97,29.5,20s-13.23,20-29.5,20s-29.5-8.97-29.5-20S1208.23,105,1224.5,105 M1224.5,104
		c-16.84,0-30.5,9.4-30.5,21s13.66,21,30.5,21s30.5-9.4,30.5-21S1241.34,104,1224.5,104L1224.5,104z"/>
</g>
<g>
	<path d="M1316.5,105c16.27,0,29.5,8.97,29.5,20s-13.23,20-29.5,20s-29.5-8.97-29.5-20S1300.23,105,1316.5,105 M1316.5,104
		c-16.84,0-30.5,9.4-30.5,21s13.66,21,30.5,21s30.5-9.4,30.5-21S1333.34,104,1316.5,104L1316.5,104z"/>
</g>
<g>
	<path d="M377,294v381H41V294H377 M378,293H40v383h338V293L378,293z"/>
</g>
<g>
	<path d="M1352,304v398H462V304H1352 M1353,303H461v400h892V303L1353,303z"/>
</g>
<g>
	<path d="M355,312v176H71V312H355 M356,311H70v178h286V311L356,311z"/>
</g>
<rect x="610" y="366" class="st2" width="586" height="174"/>
<text transform="matrix(1 0 0 1 610 400.0801)"><tspan x="0" y="0" class="st0 st6">Sed</tspan><tspan x="74.78" y="0" class="st0 st6 st7"> </tspan><tspan x="120.81" y="0" class="st0 st6">ut</tspan><tspan x="163.14" y="0" class="st0 st6 st7"> </tspan><tspan x="209.17" y="0" class="st0 st6">perspiciatis</tspan><tspan x="435.77" y="0" class="st0 st6 st7"> </tspan><tspan x="481.8" y="0" class="st0 st6">unde </tspan><tspan x="0" y="57.6" class="st0 st6">omnis</tspan><tspan x="123.26" y="57.6" class="st0 st6 st8"> </tspan><tspan x="137.99" y="57.6" class="st0 st6">iste</tspan><tspan x="208.17" y="57.6" class="st0 st6 st8"> </tspan><tspan x="222.9" y="57.6" class="st0 st6">natus</tspan><tspan x="334.02" y="57.6" class="st0 st6 st8"> </tspan><tspan x="348.75" y="57.6" class="st0 st6">error</tspan><tspan x="446.24" y="57.6" class="st0 st6 st8"> </tspan><tspan x="460.97" y="57.6" class="st0 st6">sit</tspan><tspan x="507.09" y="57.6" class="st0 st6 st8"> </tspan><tspan x="521.83" y="57.6" class="st0 st6">vo</tspan><tspan x="571.27" y="57.6" class="st0 st6">-</tspan><tspan x="0" y="115.2" class="st0 st6">luptatem</tspan><tspan x="184.08" y="115.2" class="st0 st6 st9"> </tspan><tspan x="204.63" y="115.2" class="st0 st6">accusantium</tspan><tspan x="459.61" y="115.2" class="st0 st6 st9"> </tspan><tspan x="480.16" y="115.2" class="st0 st6">dolo</tspan><tspan x="571.27" y="115.2" class="st0 st6">-</tspan></text>
<text transform="matrix(1 0 0 1 480.9307 225)" class="st0 st6">Navigation Bar</text>
<rect x="90" y="515" class="st2" width="248" height="103"/>
<text transform="matrix(1 0 0 1 100.146 549.0801)"><tspan x="0" y="0" class="st0 st6">Hello this is </tspan><tspan x="26.93" y="57.6" class="st0 st6">my wire</tspan><tspan x="186.05" y="57.6" class="st0 st6">-</tspan></text>
<text transform="matrix(1 0 0 1 1018 122)" class="st0 st4">developer</text>
<text transform="matrix(1 0 0 1 1210 122)" class="st0 st4">Case Studies</text>
<text transform="matrix(1 0 0 1 1316.5 125)" class="st0 st4">About</text>
</svg>
