<?xml version="1.0" encoding="utf-8"?>
<!-- Generator: Adobe Illustrator 25.2.1, SVG Export Plug-In . SVG Version: 6.00 Build 0)  -->
<svg version="1.1" id="Layer_1" xmlns="http://www.w3.org/2000/svg" xmlns:xlink="http://www.w3.org/1999/xlink" x="0px" y="0px"
	 viewBox="0 0 1366 768" style="enable-background:new 0 0 1366 768;" xml:space="preserve">
<style type="text/css">
	.st0{enable-background:new    ;}
	.st1{font-family:'ArialMT';}
	.st2{font-size:19.68px;}
	.st3{font-size:48px;}
	.st4{fill:none;}
	.st5{font-family:'MyriadPro-Regular';}
	.st6{font-size:21px;}
	.st7{font-size:14px;}
	.st8{font-size:18px;}
	.st9{font-size:24px;}
	.st10{fill:#475E5E;}
	.st11{fill:#793642;}
</style>
<path d="M1357,37v118H16V37H1357 M1358,36H15v120h1343V36z"/>
<path d="M131.5,56c37.2,0,67.5,18.8,67.5,42s-30.3,42-67.5,42S64,121.2,64,98S94.3,56,131.5,56 M131.5,55C93.7,55,63,74.2,63,98
	s30.7,43,68.5,43S200,121.8,200,98S169.3,55,131.5,55z"/>
<path d="M1357,192v67H23v-67H1357 M1358,191H22v69h1336V191z"/>
<path d="M1028.5,105c16.3,0,29.5,9,29.5,20s-13.2,20-29.5,20s-29.5-9-29.5-20S1012.2,105,1028.5,105 M1028.5,104
	c-16.8,0-30.5,9.4-30.5,21s13.7,21,30.5,21c16.8,0,30.5-9.4,30.5-21S1045.3,104,1028.5,104z"/>
<text transform="matrix(2.43 0 0 1 83.999 90.4697)" class="st0"><tspan x="0" y="0" class="st1 st2">Company</tspan><tspan x="0" y="23.6" class="st1 st2">Logo</tspan></text>
<path d="M1121.5,105c16.3,0,29.5,9,29.5,20s-13.2,20-29.5,20s-29.5-9-29.5-20S1105.2,105,1121.5,105 M1121.5,104
	c-16.8,0-30.5,9.4-30.5,21s13.7,21,30.5,21s30.5-9.4,30.5-21S1138.3,104,1121.5,104z"/>
<path d="M1224.5,105c16.3,0,29.5,9,29.5,20s-13.2,20-29.5,20s-29.5-9-29.5-20S1208.2,105,1224.5,105 M1224.5,104
	c-16.8,0-30.5,9.4-30.5,21s13.7,21,30.5,21s30.5-9.4,30.5-21S1241.3,104,1224.5,104z"/>
<path d="M1316.5,105c16.3,0,29.5,9,29.5,20s-13.2,20-29.5,20s-29.5-9-29.5-20S1300.2,105,1316.5,105 M1316.5,104
	c-16.8,0-30.5,9.4-30.5,21s13.7,21,30.5,21s30.5-9.4,30.5-21S1333.3,104,1316.5,104z"/>
<path d="M377,294v381H41V294H377 M378,293H40v383h338V293z"/>
<path d="M1352,304v398H462V304H1352 M1353,303H461v400h892V303z"/>
<path d="M355,312v176H71V312H355 M356,311H70v178h286V311z"/>
<text transform="matrix(1 0 0 1 481.22 225)" class="st1 st3">N</text>
<text transform="matrix(1 0 0 1 512.8 225)" class="st1 st3">a</text>
<text transform="matrix(1 0 0 1 535.56 225)" class="st1 st3">vig</text>
<text transform="matrix(1 0 0 1 596.71 225)" class="st1 st3">a</text>
<text transform="matrix(1 0 0 1 619.65 225)" class="st1 st3">tion Bar</text>
<rect x="517" y="64" class="st4" width="284" height="30"/>
<text transform="matrix(1 0 0 1 517 78.9097)" class="st5 st6">Products</text>
<rect x="1014" y="114" class="st4" width="68" height="28"/>
<text transform="matrix(1 0 0 1 1014 123.9399)" class="st5 st7">Insigths</text>
<rect x="1082" y="107" class="st4" width="78" height="32"/>
<text transform="matrix(1 0 0 1 1082 119.7798)" class="st5 st8">Develoers</text>
<text transform="matrix(1 0 0 1 1223 119)"><tspan x="0" y="0" class="st5 st7">Case</tspan><tspan x="0" y="16.8" class="st5 st7">Studies</tspan></text>
<rect x="1293.8" y="111" class="st4" width="46.1" height="26.2"/>
<text transform="matrix(1 0 0 1 1293.7861 120.9292)" class="st5 st7">About</text>
<rect x="620" y="367" class="st4" width="628" height="258"/>
<text transform="matrix(1 0 0 1 620 376.9399)"><tspan x="0" y="0" class="st5 st7">Lorem ipsum dolor sit amet, consectetuer adipiscing elit, sed diam nonummy nibh euismod tincidunt ut </tspan><tspan x="0" y="16.8" class="st5 st7">laoreet dolore magna aliquam erat volutpat. Ut wisi enim ad minim veniam, quis nostrud exerci tation </tspan><tspan x="0" y="33.6" class="st5 st7">ullamcorper suscipit lobortis nisl ut aliquip ex ea commodo consequat. Duis autem vel eum iriure dolor in </tspan><tspan x="0" y="50.4" class="st5 st7">hendrerit in vulputate velit esse molestie consequat, vel illum dolore eu feugiat nulla facilisis at vero eros et </tspan><tspan x="0" y="67.2" class="st5 st7">accumsan et iusto odio dignissim qui blandit praesent luptatum zzril delenit augue duis dolore te feugait </tspan><tspan x="0" y="84" class="st5 st7">nulla facilisi.</tspan><tspan x="0" y="100.8" class="st5 st7">Lorem ipsum dolor sit amet, cons ectetuer adipiscing elit, sed diam nonummy nibh euismod tincidunt ut </tspan><tspan x="0" y="117.6" class="st5 st7">laoreet dolore magna aliquam erat volutpat. Ut wisi enim ad minim veniam, quis nostrud exerci tation </tspan><tspan x="0" y="134.4" class="st5 st7">ullamcorper suscipit lobortis nisl ut aliquip ex ea commodo consequat.</tspan><tspan x="0" y="151.2" class="st5 st7">Lorem ipsum dolor sit amet, consectetuer adipiscing elit, sed diam nonummy nibh euismod tincidunt ut </tspan><tspan x="0" y="168" class="st5 st7">laoreet dolore magna aliquam erat volutpat. Ut wisi enim ad minim veniam, quis nostrud exerci tation </tspan><tspan x="0" y="184.8" class="st5 st7">ullamcorper suscipit lobortis nisl ut aliquip ex ea commodo consequat. Duis autem vel eum iriure dolor in </tspan><tspan x="0" y="201.6" class="st5 st7">hendrerit in vulputate velit esse molestie consequat, vel illum dolore eu feugiat nulla facilisis at vero eros et </tspan><tspan x="0" y="218.4" class="st5 st7">accumsan et iusto odio dignissim qui blandit praesent luptatum zzril delenit augue duis dolore te feugait </tspan><tspan x="0" y="235.2" class="st5 st7">nulla facilisi.</tspan></text>
<rect x="104" y="523" class="st4" width="223" height="87"/>
<text transform="matrix(1 0 0 1 104 535.7803)"><tspan x="0" y="0" class="st5 st8">Hello World</tspan><tspan x="0" y="21.6" class="st5 st8">Wireframe</tspan></text>
<rect x="83" y="324" class="st4" width="253" height="151"/>
<text transform="matrix(1 0 0 1 83 341.04)"><tspan x="0" y="0" class="st5 st9">All of my products and </tspan><tspan x="0" y="28.8" class="st5 st9">their price</tspan></text>
<rect y="768" class="st10" width="1366" height="325"/>
<rect y="1093" class="st11" width="1377" height="299"/>
<rect x="271" y="831" class="st4" width="804" height="188"/>
<text transform="matrix(1 0 0 1 271 848.04)"><tspan x="0" y="0" class="st5 st9">Lorem ipsum dolor sit amet, consectetuer adipiscing elit, sed diam nonummy </tspan><tspan x="0" y="28.8" class="st5 st9">nibh euismod tincidunt ut laoreet dolore magna aliquam erat volutpat. Ut wisi </tspan><tspan x="0" y="57.6" class="st5 st9">enim ad minim veniam, quis nostrud exerci tation ullamcorper suscipit lobortis </tspan><tspan x="0" y="86.4" class="st5 st9">nisl ut aliquip ex ea commodo consequat. Duis autem vel eum iriure dolor in </tspan><tspan x="0" y="115.2" class="st5 st9">hendrerit in vulputate velit esse molestie consequat, vel illum dolore eu feugiat </tspan><tspan x="0" y="144" class="st5 st9">nulla facilisis at vero eros et accumsan et iusto odio dignissim qui blandit prae</tspan></text>
<rect x="257" y="1144" class="st4" width="874" height="186"/>
<text transform="matrix(1 0 0 1 257 1161.04)"><tspan x="0" y="0" class="st5 st9">Lorem ipsum dolor sit amet, consectetuer adipiscing elit, sed diam nonummy nibh euis</tspan><tspan x="866.2" y="0" class="st5 st9">-</tspan><tspan x="0" y="28.8" class="st5 st9">mod tincidunt ut laoreet dolore magna aliquam erat volutpat. Ut wisi enim ad minim </tspan><tspan x="0" y="57.6" class="st5 st9">veniam, quis nostrud exerci tation ullamcorper suscipit lobortis nisl ut aliquip ex ea </tspan><tspan x="0" y="86.4" class="st5 st9">commodo consequat. Duis autem vel eum iriure dolor in hendrerit in vulputate velit </tspan><tspan x="0" y="115.2" class="st5 st9">esse molestie consequat, vel illum dolore eu feugiat nulla facilisis at vero eros et ac</tspan><tspan x="820.4" y="115.2" class="st5 st9">-</tspan><tspan x="0" y="144" class="st5 st9">cumsan et iusto odio dignissim qui blandit praesent luptatum zzril delenit augue duis </tspan></text>
</svg>
